<svg width="25" height="24" viewBox="0 0 25 24" fill="none" xmlns="http://www.w3.org/2000/svg">
<path fill-rule="evenodd" clip-rule="evenodd" d="M9.13464 0H15.8654C20.9104 0 25 4.09487 25 9.14611V14.8538C25 19.9051 20.9104 24 15.8654 24H0.500296C0.223978 24 0 23.7757 0 23.4991V9.14611C0 4.09487 4.08975 0 9.13464 0ZM6.5 7C5.67157 7 5 7.67157 5 8.5V13.5C5 14.3284 5.67157 15 6.5 15C7.32843 15 8 14.3284 8 13.5V8.5C8 7.67157 7.32843 7 6.5 7ZM17 8.5C17 7.67157 17.6716 7 18.5 7C19.3284 7 20 7.67157 20 8.5V13.5C20 14.3284 19.3284 15 18.5 15C17.6716 15 17 14.3284 17 13.5V8.5ZM15 18H10V18.5C10 19.8807 11.1193 21 12.5 21C13.8807 21 15 19.8807 15 18.5V18Z" fill="#DB004C"/>
</svg>
