<svg width="70" height="18" viewBox="0 0 70 18" fill="none" xmlns="http://www.w3.org/2000/svg">
<path d="M2.976 17.532L0 5.628H3.504L4.656 11.148C4.752 11.74 4.84 12.324 4.92 12.9C5 13.476 5.088 14.068 5.184 14.676H5.28C5.392 14.068 5.496 13.468 5.592 12.876C5.704 12.284 5.832 11.708 5.976 11.148L7.296 5.628H10.344L11.688 11.148C11.832 11.74 11.96 12.324 12.072 12.9C12.2 13.476 12.32 14.068 12.432 14.676H12.528C12.64 14.068 12.728 13.476 12.792 12.9C12.872 12.324 12.968 11.74 13.08 11.148L14.208 5.628H17.472L14.616 17.532H10.488L9.408 12.78C9.296 12.22 9.184 11.66 9.072 11.1C8.976 10.54 8.872 9.94 8.76 9.3H8.664C8.552 9.94 8.448 10.54 8.352 11.1C8.272 11.66 8.176 12.22 8.064 12.78L7.008 17.532H2.976Z" fill="#DB004C"/>
<path d="M19.6168 17.532V5.628H23.1448V17.532H19.6168ZM21.3688 3.876C20.7768 3.876 20.2968 3.708 19.9288 3.372C19.5608 3.036 19.3768 2.588 19.3768 2.028C19.3768 1.468 19.5608 1.02 19.9288 0.684001C20.2968 0.348001 20.7768 0.18 21.3688 0.18C21.9608 0.18 22.4408 0.348001 22.8088 0.684001C23.1768 1.02 23.3608 1.468 23.3608 2.028C23.3608 2.588 23.1768 3.036 22.8088 3.372C22.4408 3.708 21.9608 3.876 21.3688 3.876Z" fill="#DB004C"/>
<path d="M29.4896 17.82C28.2736 17.82 27.4256 17.46 26.9456 16.74C26.4816 16.004 26.2496 15.036 26.2496 13.836V0.708001H29.7776V13.98C29.7776 14.348 29.8416 14.604 29.9696 14.748C30.1136 14.892 30.2576 14.964 30.4016 14.964C30.4816 14.964 30.5456 14.964 30.5936 14.964C30.6576 14.948 30.7376 14.932 30.8336 14.916L31.2656 17.532C31.0736 17.612 30.8256 17.676 30.5216 17.724C30.2336 17.788 29.8896 17.82 29.4896 17.82Z" fill="#DB004C"/>
<path d="M36.3568 17.82C35.1408 17.82 34.2928 17.46 33.8128 16.74C33.3488 16.004 33.1168 15.036 33.1168 13.836V0.708001H36.6448V13.98C36.6448 14.348 36.7088 14.604 36.8368 14.748C36.9808 14.892 37.1248 14.964 37.2688 14.964C37.3488 14.964 37.4128 14.964 37.4608 14.964C37.5248 14.948 37.6048 14.932 37.7008 14.916L38.1328 17.532C37.9408 17.612 37.6928 17.676 37.3888 17.724C37.1008 17.788 36.7568 17.82 36.3568 17.82Z" fill="#DB004C"/>
<path d="M45.096 17.82C44.088 17.82 43.136 17.58 42.24 17.1C41.36 16.604 40.648 15.892 40.104 14.964C39.56 14.02 39.288 12.892 39.288 11.58C39.288 10.252 39.56 9.124 40.104 8.196C40.648 7.268 41.36 6.564 42.24 6.084C43.136 5.588 44.088 5.34 45.096 5.34C46.104 5.34 47.048 5.588 47.928 6.084C48.808 6.564 49.52 7.268 50.064 8.196C50.608 9.124 50.88 10.252 50.88 11.58C50.88 12.892 50.608 14.02 50.064 14.964C49.52 15.892 48.808 16.604 47.928 17.1C47.048 17.58 46.104 17.82 45.096 17.82ZM45.096 14.964C45.816 14.964 46.36 14.66 46.728 14.052C47.096 13.428 47.28 12.604 47.28 11.58C47.28 10.54 47.096 9.716 46.728 9.108C46.36 8.5 45.816 8.196 45.096 8.196C44.36 8.196 43.808 8.5 43.44 9.108C43.088 9.716 42.912 10.54 42.912 11.58C42.912 12.604 43.088 13.428 43.44 14.052C43.808 14.66 44.36 14.964 45.096 14.964Z" fill="#DB004C"/>
<path d="M55.101 17.532L52.125 5.628H55.629L56.781 11.148C56.877 11.74 56.965 12.324 57.045 12.9C57.125 13.476 57.213 14.068 57.309 14.676H57.405C57.517 14.068 57.621 13.468 57.717 12.876C57.829 12.284 57.957 11.708 58.101 11.148L59.421 5.628H62.469L63.813 11.148C63.957 11.74 64.085 12.324 64.197 12.9C64.325 13.476 64.445 14.068 64.557 14.676H64.653C64.765 14.068 64.853 13.476 64.917 12.9C64.997 12.324 65.093 11.74 65.205 11.148L66.333 5.628H69.597L66.741 17.532H62.613L61.533 12.78C61.421 12.22 61.309 11.66 61.197 11.1C61.101 10.54 60.997 9.94 60.885 9.3H60.789C60.677 9.94 60.573 10.54 60.477 11.1C60.397 11.66 60.301 12.22 60.189 12.78L59.133 17.532H55.101Z" fill="#DB004C"/>
</svg>
