<svg width="25" height="24" viewBox="0 0 25 24" fill="none" xmlns="http://www.w3.org/2000/svg">
<path fill-rule="evenodd" clip-rule="evenodd" d="M18.7501 15.3548C18.7501 16.6733 17.6825 17.7421 16.3657 17.7421C16.0894 17.7421 15.8654 17.5179 15.8654 17.2412V6.75879C15.8654 6.48213 16.0894 6.25787 16.3657 6.25787H18.2498C18.5262 6.25787 18.7501 6.48213 18.7501 6.75879V15.3548ZM13.4421 17.7421H11.5579C11.2817 17.7421 11.0578 17.5179 11.0578 17.2412V9.62989C11.0578 9.35323 11.2817 9.12897 11.5579 9.12897H13.4421C13.7183 9.12897 13.9423 9.35323 13.9423 9.62989V17.2412C13.9423 17.5179 13.7183 17.7421 13.4421 17.7421ZM8.63439 17.7421H6.7503C6.47399 17.7421 6.25 17.5179 6.25 17.2412V8.20291C6.25 7.92625 6.47399 7.70199 6.7503 7.70199H8.63439C8.91065 7.70199 9.13463 7.92625 9.13463 8.20291V17.2412C9.13463 17.5179 8.91065 17.7421 8.63439 17.7421ZM15.8654 0H9.13464C4.08975 0 0 4.09487 0 9.14611V23.4991C0 23.7757 0.223978 24 0.500296 24H15.8654C20.9104 24 25 19.9051 25 14.8538V9.14611C25 4.09487 20.9104 0 15.8654 0Z" fill="#DB004C"/>
</svg>
