<svg xmlns="http://www.w3.org/2000/svg"><symbol id="calendar-thicker" viewBox="0 0 16 16"><path fill-rule="evenodd" d="M11.417 1.333a.75.75 0 0 0-1.5 0v.584H6.083v-.584a.75.75 0 1 0-1.5 0v.584h-1.25c-1.15 0-2.083.932-2.083 2.083v9.333c0 1.15.933 2.084 2.083 2.084h9.334c1.15 0 2.083-.933 2.083-2.084V4c0-1.15-.933-2.083-2.083-2.083h-1.25v-.584zm1.833 4.584V4a.583.583 0 0 0-.583-.583h-1.25V4a.75.75 0 0 1-1.5 0v-.583H6.083V4a.75.75 0 1 1-1.5 0v-.583h-1.25A.583.583 0 0 0 2.75 4v1.917h10.5zm-10.5 1.5h10.5v5.916a.583.583 0 0 1-.583.584H3.333a.583.583 0 0 1-.583-.584V7.417z" clip-rule="evenodd"/></symbol><symbol id="calendar" viewBox="0 0 16 16"><path fill-rule="evenodd" d="M11.167 1.333a.5.5 0 1 0-1 0v.834H5.833v-.834a.5.5 0 0 0-1 0v.834h-1.5C2.321 2.167 1.5 2.987 1.5 4v9.333c0 1.013.82 1.834 1.833 1.834h9.334a1.834 1.834 0 0 0 1.833-1.834V4c0-1.013-.82-1.833-1.833-1.833h-1.5v-.834zM13.5 6.167V4a.833.833 0 0 0-.833-.833h-1.5V4a.5.5 0 1 1-1 0v-.833H5.833V4a.5.5 0 0 1-1 0v-.833h-1.5A.833.833 0 0 0 2.5 4v2.167h11zm-11 1h11v6.166c0 .46-.373.834-.833.834H3.333a.833.833 0 0 1-.833-.834V7.167z" clip-rule="evenodd"/></symbol><symbol id="chevron-up" viewBox="0 0 16 16"><path fill-rule="evenodd" d="M7.293 4.293a1 1 0 0 1 1.414 0l6 6a1 1 0 0 1-1.414 1.414L8 6.414l-5.293 5.293a1 1 0 0 1-1.414-1.414l6-6z" clip-rule="evenodd"/></symbol><symbol id="eye-off" viewBox="0 0 16 16"><path fill-rule="evenodd" d="M2.707 1.293a1 1 0 0 0-1.414 1.414L3.494 4.91A11.833 11.833 0 0 0 1.12 7.985a1 1 0 0 0-.013.92v.002l.001.002.003.005.008.015a4.822 4.822 0 0 0 .12.221 12.55 12.55 0 0 0 1.721 2.34c1.184 1.265 3.045 2.665 5.5 2.665h.016a6.912 6.912 0 0 0 3.341-.924l2.393 2.393a1 1 0 0 0 1.415-1.415l-2.961-2.96a1.445 1.445 0 0 0-.022-.022L10.414 9l-.007-.007L7.924 6.51a.8.8 0 0 0-.007-.006l-2.23-2.23a1.007 1.007 0 0 0-.02-.02l-2.96-2.96zM4.91 6.324A9.832 9.832 0 0 0 3.15 8.46l.12.19c.261.405.647.941 1.147 1.474 1.015 1.083 2.38 2.03 4.032 2.032a4.915 4.915 0 0 0 1.88-.41l-.742-.743A2.763 2.763 0 0 1 5.914 7.33L4.91 6.324zm2.543-1.448a4.354 4.354 0 0 1 1.003-.115h.002c1.656 0 3.024.948 4.041 2.033a10.55 10.55 0 0 1 1.267 1.664 9.86 9.86 0 0 1-.883 1.23 1 1 0 1 0 1.53 1.287 11.9 11.9 0 0 0 1.386-2.045 1 1 0 0 0 .012-.919V8.01l-.002-.002-.002-.005-.008-.015a4.318 4.318 0 0 0-.12-.222 12.56 12.56 0 0 0-1.721-2.34C12.774 4.162 10.913 2.762 8.46 2.76h.002v-.037l-.003.037h.001a6.354 6.354 0 0 0-1.462.168 1 1 0 1 0 .456 1.947z" clip-rule="evenodd"/></symbol><symbol id="minus-circle" viewBox="0 0 16 16"><path fill-rule="evenodd" d="M2.083 8a5.917 5.917 0 1 1 11.834 0A5.917 5.917 0 0 1 2.083 8zM8 .583a7.417 7.417 0 1 0 0 14.834A7.417 7.417 0 0 0 8 .583zM5.333 7.25a.75.75 0 0 0 0 1.5h5.334a.75.75 0 0 0 0-1.5H5.333z" clip-rule="evenodd"/></symbol><symbol id="plus" viewBox="0 0 16 16"><path fill-rule="evenodd" d="M9 3.334a1 1 0 0 0-2 0V7H3.334a1 1 0 0 0 0 2H7v3.668a1 1 0 1 0 2 0V9h3.668a1 1 0 1 0 0-2H9V3.334z" clip-rule="evenodd"/></symbol><symbol id="eye" viewBox="0 0 16 16"><path fill-rule="evenodd" d="M3.05 7.83c-.06-.093-.113-.179-.16-.255A10.666 10.666 0 0 1 4.21 5.83c1.027-1.095 2.424-2.07 4.126-2.07 1.702 0 3.1.975 4.126 2.07a10.663 10.663 0 0 1 1.319 1.745c-.047.076-.1.162-.16.256-.264.408-.654.95-1.16 1.489-1.026 1.095-2.423 2.069-4.125 2.069s-3.1-.974-4.126-2.07a10.665 10.665 0 0 1-1.158-1.488zm11.74-.255l.787-.395-.787.395zm-13.697.393a.88.88 0 0 1 0-.787l.787.394-.787.393zm0 0v.002l.001.001.003.005.007.015a4.811 4.811 0 0 0 .118.217 12.427 12.427 0 0 0 1.703 2.316c1.174 1.252 3.005 2.625 5.41 2.625 2.405 0 4.236-1.373 5.41-2.625a12.422 12.422 0 0 0 1.703-2.316 7.454 7.454 0 0 0 .118-.217l.007-.015.003-.005V7.97s.001-.002-.785-.395l.786.393a.881.881 0 0 0 0-.788l-.001-.002-.003-.005-.007-.014a5.781 5.781 0 0 0-.118-.218 12.421 12.421 0 0 0-1.703-2.316C12.571 3.373 10.74 2 8.335 2 5.93 2 4.1 3.373 2.925 4.625a12.427 12.427 0 0 0-1.703 2.316 7.514 7.514 0 0 0-.118.218l-.007.014-.003.005v.002s-.001.001.786.395l-.787.393zm7.243-3.034a2.64 2.64 0 1 0 0 5.28 2.64 2.64 0 0 0 0-5.28z" clip-rule="evenodd"/></symbol><symbol id="moon" viewBox="0 0 16 16"><path fill-rule="evenodd" d="M8.344 1.509a1 1 0 0 1-.067 1.085 3.667 3.667 0 0 0 5.129 5.129 1 1 0 0 1 1.59.896A7 7 0 1 1 7.38 1.004a1 1 0 0 1 .963.505zM5.693 3.552a5 5 0 1 0 6.755 6.755 5.667 5.667 0 0 1-6.755-6.755z" clip-rule="evenodd"/></symbol><symbol id="plus-circle" viewBox="0 0 16 16"><path fill-rule="evenodd" d="M8 2.083a5.917 5.917 0 1 0 0 11.834A5.917 5.917 0 0 0 8 2.083zM.583 8a7.417 7.417 0 1 1 14.834 0A7.417 7.417 0 0 1 .583 8zM8 4.583a.75.75 0 0 1 .75.75V7.25h1.917a.75.75 0 0 1 0 1.5H8.75v1.917a.75.75 0 0 1-1.5 0V8.75H5.333a.75.75 0 0 1 0-1.5H7.25V5.333a.75.75 0 0 1 .75-.75z" clip-rule="evenodd"/></symbol><symbol id="info-circle" viewBox="0 0 16 16"><path fill-rule="evenodd" d="M8 2.333a5.667 5.667 0 1 0 0 11.333A5.667 5.667 0 0 0 8 2.333zM.332 7.999a7.667 7.667 0 1 1 15.333 0A7.667 7.667 0 0 1 .333 8zM8 4.333a1 1 0 0 1 1 1v2.666a1 1 0 1 1-2 0V5.333a1 1 0 0 1 1-1zm0 5.334a1 1 0 0 0 0 2h.01a1 1 0 1 0 0-2H8z" clip-rule="evenodd"/></symbol><symbol id="text" viewBox="0 0 16 16"><path fill-rule="evenodd" d="M2 3.25a.75.75 0 0 0 0 1.5h12a.75.75 0 0 0 0-1.5H2zm0 2.667a.75.75 0 0 0 0 1.5h9.333a.75.75 0 0 0 0-1.5H2zm-.75 3.416a.75.75 0 0 1 .75-.75h12a.75.75 0 0 1 0 1.5H2a.75.75 0 0 1-.75-.75zM2 11.25a.75.75 0 0 0 0 1.5h9.333a.75.75 0 0 0 0-1.5H2z" clip-rule="evenodd"/></symbol><symbol id="x" viewBox="0 0 16 16"><path fill-rule="evenodd" d="M12.707 4.707a1 1 0 0 0-1.414-1.414L8 6.586 4.707 3.293a1 1 0 0 0-1.414 1.414L6.586 8l-3.293 3.293a1 1 0 1 0 1.414 1.414L8 9.414l3.293 3.293a1 1 0 0 0 1.414-1.414L9.414 8l3.293-3.293z" clip-rule="evenodd"/></symbol><symbol id="money" viewBox="0 0 16 16"><path d="M.959 12V3.273h3.11c.677 0 1.238.116 1.684.35.449.232.784.555 1.006.966.221.41.332.883.332 1.42 0 .534-.112 1.004-.337 1.41a2.265 2.265 0 0 1-1.005.942c-.446.224-1.007.336-1.684.336H1.71V7.564h2.237c.426 0 .773-.061 1.04-.183.27-.122.467-.3.592-.533.125-.233.188-.513.188-.84 0-.329-.064-.615-.192-.856a1.238 1.238 0 0 0-.592-.554c-.267-.13-.618-.196-1.053-.196H2.276V12H.959zm4.308-3.938L7.423 12h-1.5L3.81 8.062h1.457zm6 5.028V2.183h.699V13.09h-.699zm2.186-7.525a1.245 1.245 0 0 0-.562-.937c-.33-.225-.745-.337-1.245-.337-.358 0-.667.057-.929.17a1.43 1.43 0 0 0-.609.46 1.086 1.086 0 0 0-.213.661c0 .208.048.387.145.537.1.15.229.277.388.38.161.099.335.183.52.251.184.065.362.12.532.162l.852.222c.279.068.564.16.857.277.293.116.564.27.814.46s.452.426.605.707c.156.281.234.618.234 1.01 0 .494-.128.933-.383 1.317-.253.383-.62.686-1.104.908-.48.221-1.06.332-1.743.332-.653 0-1.219-.104-1.696-.311a2.621 2.621 0 0 1-1.12-.882c-.27-.384-.42-.838-.448-1.364H9.67c.026.315.128.578.307.788.182.208.413.363.694.465.285.1.596.15.934.15.372 0 .703-.06.993-.176.292-.119.522-.284.69-.494a1.17 1.17 0 0 0 .251-.746.915.915 0 0 0-.221-.635 1.637 1.637 0 0 0-.592-.409 5.79 5.79 0 0 0-.84-.285l-1.031-.282c-.7-.19-1.253-.47-1.662-.839-.406-.37-.61-.858-.61-1.466 0-.503.137-.942.41-1.317a2.687 2.687 0 0 1 1.107-.873 3.8 3.8 0 0 1 1.577-.316c.591 0 1.112.104 1.564.311.455.208.813.493 1.074.857.261.36.398.776.41 1.244h-1.27z"/></symbol></svg>