<svg xmlns="http://www.w3.org/2000/svg"><symbol id="logo-symbol" viewBox="0 0 25 24"><path fill-rule="evenodd" d="M9.135 0h6.73C20.91 0 25 4.095 25 9.146v5.708C25 19.905 20.91 24 15.865 24H.5a.5.5 0 0 1-.5-.5V9.145C0 4.095 4.09 0 9.135 0zM14 17h-3v.5a1.5 1.5 0 0 0 3 0V17zM5 8.5a1.5 1.5 0 1 1 3 0v5a1.5 1.5 0 0 1-3 0v-5zM18.5 7A1.5 1.5 0 0 0 17 8.5v5a1.5 1.5 0 0 0 3 0v-5A1.5 1.5 0 0 0 18.5 7z" clip-rule="evenodd"/></symbol><symbol id="logo-wordmark" viewBox="0 0 70 18"><path d="M2.976 17.532L0 5.628h3.504l1.152 5.52c.096.592.184 1.176.264 1.752.08.576.168 1.168.264 1.776h.096c.112-.608.216-1.208.312-1.8.112-.592.24-1.168.384-1.728l1.32-5.52h3.048l1.344 5.52c.144.592.272 1.176.384 1.752.128.576.248 1.168.36 1.776h.096c.112-.608.2-1.2.264-1.776.08-.576.176-1.16.288-1.752l1.128-5.52h3.264l-2.856 11.904h-4.128l-1.08-4.752-.336-1.68c-.096-.56-.2-1.16-.312-1.8h-.096c-.112.64-.216 1.24-.312 1.8-.08.56-.176 1.12-.288 1.68l-1.056 4.752H2.976zm16.641 0V5.628h3.528v11.904h-3.528zm1.752-13.656c-.592 0-1.072-.168-1.44-.504-.368-.336-.552-.784-.552-1.344s.184-1.008.552-1.344c.368-.336.848-.504 1.44-.504s1.072.168 1.44.504c.368.336.552.784.552 1.344s-.184 1.008-.552 1.344c-.368.336-.848.504-1.44.504zM29.49 17.82c-1.216 0-2.064-.36-2.544-1.08-.464-.736-.696-1.704-.696-2.904V.708h3.528V13.98c0 .368.064.624.192.768.144.144.288.216.432.216h.192c.064-.016.144-.032.24-.048l.432 2.616c-.192.08-.44.144-.744.192a4.818 4.818 0 0 1-1.032.096zm6.867 0c-1.216 0-2.064-.36-2.544-1.08-.464-.736-.696-1.704-.696-2.904V.708h3.528V13.98c0 .368.064.624.192.768.144.144.288.216.432.216h.192c.064-.016.144-.032.24-.048l.432 2.616c-.192.08-.44.144-.744.192a4.818 4.818 0 0 1-1.032.096zm8.739 0a5.96 5.96 0 0 1-2.856-.72c-.88-.496-1.592-1.208-2.136-2.136-.544-.944-.816-2.072-.816-3.384 0-1.328.272-2.456.816-3.384.544-.928 1.256-1.632 2.136-2.112a5.808 5.808 0 0 1 2.856-.744c1.008 0 1.952.248 2.832.744.88.48 1.592 1.184 2.136 2.112.544.928.816 2.056.816 3.384 0 1.312-.272 2.44-.816 3.384-.544.928-1.256 1.64-2.136 2.136-.88.48-1.824.72-2.832.72zm0-2.856c.72 0 1.264-.304 1.632-.912.368-.624.552-1.448.552-2.472 0-1.04-.184-1.864-.552-2.472-.368-.608-.912-.912-1.632-.912-.736 0-1.288.304-1.656.912-.352.608-.528 1.432-.528 2.472 0 1.024.176 1.848.528 2.472.368.608.92.912 1.656.912zm10.005 2.568L52.125 5.628h3.504l1.152 5.52c.096.592.184 1.176.264 1.752.08.576.168 1.168.264 1.776h.096c.112-.608.216-1.208.312-1.8.112-.592.24-1.168.384-1.728l1.32-5.52h3.048l1.344 5.52c.144.592.272 1.176.384 1.752.128.576.248 1.168.36 1.776h.096c.112-.608.2-1.2.264-1.776.08-.576.176-1.16.288-1.752l1.128-5.52h3.264l-2.856 11.904h-4.128l-1.08-4.752-.336-1.68c-.096-.56-.2-1.16-.312-1.8h-.096c-.112.64-.216 1.24-.312 1.8-.08.56-.176 1.12-.288 1.68l-1.056 4.752h-4.032z"/></symbol></svg>